<?xml version="1.0" standalone="no"?>
<!DOCTYPE svg PUBLIC "-//W3C//DTD SVG 20010904//EN"
 "http://www.w3.org/TR/2001/REC-SVG-20010904/DTD/svg10.dtd">
<svg version="1.0" xmlns="http://www.w3.org/2000/svg"
 width="210.000000pt" height="210.000000pt" viewBox="0 0 210.000000 210.000000"
 preserveAspectRatio="xMidYMid meet">
<metadata>
Created by potrace 1.11, written by Peter Selinger 2001-2013
</metadata>
<g transform="translate(0.000000,210.000000) scale(0.100000,-0.100000)"
fill="#000000" stroke="none">
<path d="M963 2042 c-21 -3 -83 -66 -83 -84 0 -5 -70 -151 -156 -326 -86 -174
-198 -402 -249 -507 -51 -104 -168 -343 -260 -530 -92 -187 -169 -352 -172
-367 -6 -39 24 -85 73 -108 49 -24 91 -22 123 5 13 11 93 162 178 335 366 747
437 890 439 887 2 -2 -4 -23 -12 -47 -162 -464 -320 -950 -313 -961 7 -12 11
-12 22 1 12 13 200 555 304 878 20 61 40 112 44 112 3 0 -2 -37 -13 -82 -11
-46 -22 -94 -24 -108 -3 -13 -14 -63 -25 -110 -12 -47 -23 -96 -25 -110 -3
-14 -7 -33 -10 -42 -3 -10 -7 -30 -10 -45 -3 -16 -11 -53 -19 -83 -8 -30 -21
-89 -30 -130 -24 -111 -24 -112 -32 -145 -4 -16 -7 -32 -8 -35 -1 -3 -4 -18
-8 -35 -26 -107 -32 -155 -20 -155 6 0 15 6 21 13 9 10 78 293 97 396 3 14 14
62 25 106 11 44 22 91 25 105 2 14 16 77 30 140 15 63 29 124 31 135 11 56 28
121 35 129 4 4 1 -25 -7 -65 -7 -40 -12 -75 -9 -77 2 -2 0 -14 -5 -27 -5 -12
-11 -51 -15 -86 -4 -35 -8 -66 -10 -69 -1 -3 -6 -32 -9 -65 -4 -33 -9 -67 -11
-75 -4 -17 -11 -64 -20 -135 -3 -27 -9 -63 -12 -80 -4 -16 -8 -39 -9 -50 -6
-57 -16 -123 -20 -145 -5 -25 -10 -64 -18 -128 -4 -34 9 -51 25 -35 6 6 12 25
15 44 2 19 6 45 9 59 3 14 7 45 10 70 3 25 9 59 12 75 3 17 7 41 8 55 2 14 10
75 19 135 9 61 18 125 21 143 2 18 6 45 9 60 3 15 8 43 10 62 2 19 7 46 10 60
3 14 7 48 10 75 3 28 8 59 10 70 2 11 8 45 12 75 6 37 11 -121 14 -470 4 -458
7 -525 20 -525 13 0 16 77 20 610 3 336 7 603 9 595 2 -8 5 -28 6 -45 7 -66
14 -132 19 -170 3 -22 8 -69 11 -105 4 -36 8 -76 10 -90 2 -14 7 -50 10 -80 3
-30 8 -80 12 -110 3 -30 7 -67 7 -82 1 -16 3 -28 6 -28 5 0 10 -63 13 -167 1
-24 5 -43 8 -43 4 0 7 -10 6 -22 0 -13 3 -52 6 -88 19 -175 22 -187 43 -169 9
8 12 25 9 58 -3 25 -7 66 -10 91 -3 25 -7 70 -10 100 -3 30 -7 74 -10 97 -3
24 -7 60 -9 80 -2 21 -7 63 -10 93 -12 102 -16 135 -22 200 -4 36 -7 72 -7 80
0 8 -5 18 -11 22 -7 5 -7 8 2 8 7 0 10 5 7 10 -11 18 -29 177 -19 167 3 -3 7
-11 8 -19 2 -7 6 -21 11 -30 4 -10 8 -29 9 -43 0 -14 4 -25 8 -25 5 0 7 -3 6
-7 -1 -5 8 -46 21 -92 12 -46 24 -91 27 -100 3 -14 42 -152 44 -158 7 -21 10
-32 13 -53 2 -14 7 -33 11 -42 4 -9 8 -22 10 -30 1 -7 5 -19 9 -25 5 -7 6 -13
3 -13 -2 0 2 -24 10 -52 8 -29 17 -61 19 -70 8 -36 37 -144 43 -158 3 -8 4
-18 4 -22 -3 -15 36 -8 42 7 3 8 1 15 -5 15 -6 0 -9 8 -8 18 1 9 -3 30 -10 46
-6 15 -12 39 -13 52 -1 13 -5 24 -9 24 -3 0 -6 6 -7 13 -1 19 -10 72 -13 75
-1 1 -2 5 -3 10 -3 17 -28 108 -33 122 -8 19 -10 29 -16 60 -3 14 -6 25 -7 25
-1 0 -3 7 -5 15 -10 39 -15 57 -24 87 -5 17 -7 34 -3 37 3 3 1 6 -4 6 -5 0
-10 8 -11 19 -1 10 -7 38 -14 62 -7 24 -12 48 -10 53 1 4 -3 14 -9 20 -5 7 -7
16 -3 19 3 4 1 7 -6 7 -7 0 -10 4 -7 8 5 8 -7 62 -22 102 -6 17 -10 34 -14 68
-1 12 -6 22 -11 22 -5 0 -7 7 -4 15 4 8 2 17 -3 20 -5 3 -6 13 -3 22 4 9 2 14
-3 10 -5 -3 -11 6 -12 21 -1 26 -1 26 13 8 8 -11 15 -29 15 -41 0 -12 4 -25 8
-31 4 -5 16 -34 26 -64 10 -30 20 -62 24 -70 3 -8 6 -17 6 -20 1 -3 12 -34 25
-70 30 -85 30 -85 56 -157 13 -34 20 -64 17 -67 -3 -4 -1 -6 4 -6 5 0 10 -10
11 -22 1 -11 8 -25 15 -29 7 -5 10 -9 5 -9 -4 0 -1 -15 7 -34 8 -19 12 -37 8
-40 -3 -3 0 -6 6 -6 7 0 11 -3 10 -8 -2 -6 27 -96 49 -152 4 -8 7 -18 8 -22 2
-5 4 -10 5 -13 1 -3 4 -9 5 -15 1 -5 4 -12 5 -15 1 -3 3 -8 4 -12 1 -5 6 -21
13 -38 24 -63 26 -70 27 -77 1 -3 4 -10 9 -14 4 -4 7 -17 7 -28 0 -29 27 -66
44 -60 13 5 10 54 -3 54 -4 0 -7 8 -7 18 -1 14 -99 301 -121 352 -3 8 -8 24
-10 35 -2 11 -8 22 -13 23 -6 2 -8 8 -5 12 3 5 1 17 -4 27 -15 27 -41 103 -37
103 3 0 -1 12 -9 27 -8 15 -12 30 -9 35 3 4 1 8 -4 8 -6 0 -13 12 -16 28 -4
15 -18 56 -31 92 -13 36 -25 74 -27 85 -2 11 -5 22 -8 25 -7 7 -32 73 -33 88
0 6 -3 12 -7 12 -4 0 -7 6 -8 13 -2 24 -8 47 -15 53 -4 4 -7 14 -7 23 0 19 14
0 58 -79 16 -30 46 -84 66 -118 20 -35 36 -68 36 -73 0 -5 3 -9 8 -9 4 0 16
-19 27 -43 10 -23 27 -53 36 -67 9 -14 32 -54 50 -88 19 -35 39 -71 44 -80 15
-24 158 -278 190 -337 15 -27 51 -90 79 -140 28 -49 58 -103 66 -118 29 -58
72 -86 115 -77 6 1 18 3 28 5 25 5 75 43 87 65 6 10 10 29 10 41 0 25 -66 160
-84 171 -6 4 -7 8 -2 8 5 0 1 9 -9 20 -10 11 -14 20 -9 20 5 0 4 4 -2 8 -9 6
-31 43 -109 187 -64 117 -299 532 -308 543 -5 6 -6 12 -1 12 5 0 4 4 -2 8 -6
4 -28 39 -49 77 -20 39 -41 75 -45 80 -4 6 -21 35 -37 65 -16 30 -80 144 -141
253 -62 108 -112 202 -112 207 0 6 -4 10 -9 10 -5 0 -11 10 -15 23 -11 44 -51
77 -103 85 -26 4 -58 6 -70 4z m150 -612 c3 -11 2 -18 -3 -15 -4 3 -10 14 -13
25 -3 11 -2 18 3 15 4 -3 10 -14 13 -25z m55 -25 c-3 -3 -9 2 -12 12 -6 14 -5
15 5 6 7 -7 10 -15 7 -18z m-60 -150 c-3 -3 -9 2 -12 12 -6 14 -5 15 5 6 7 -7
10 -15 7 -18z"/>
</g>
</svg>
